<svg id="Layer_1" data-name="Layer 1" xmlns="http://www.w3.org/2000/svg" viewBox="0 0 288.09 137.3"><defs><style>.cls-1{fill:#818181;}</style></defs><title>header_logo</title><path class="cls-1" d="M153.13,95.22a7.69,7.69,0,0,0-6.55,2.92q-2.21,2.92-2.21,8.68t2.19,8.67a7.64,7.64,0,0,0,6.53,2.91q8.71,0,8.71-11.58T153.13,95.22Z" transform="translate(-2.19 -2.19)"/><path class="cls-1" d="M80,95.22a7.69,7.69,0,0,0-6.55,2.92q-2.21,2.92-2.21,8.68t2.18,8.67A7.64,7.64,0,0,0,80,118.4q8.71,0,8.71-11.58T80,95.22Z" transform="translate(-2.19 -2.19)"/><path class="cls-1" d="M279.48,2.19H13A10.83,10.83,0,0,0,2.19,13V128.7A10.83,10.83,0,0,0,13,139.5H279.48a10.83,10.83,0,0,0,10.8-10.8V13A10.83,10.83,0,0,0,279.48,2.19ZM59.18,124H38V89.7h7.28V118H59.18Zm32.9-4.11q-4.23,4.58-12.12,4.58t-12.12-4.58q-4.23-4.58-4.23-13.15t4.24-13.09Q72.1,89.16,80,89.16t12.11,4.56q4.19,4.56,4.19,13.11T92.08,119.93Zm38,2.63a38.29,38.29,0,0,1-6.24,1.51,40.56,40.56,0,0,1-6,.43q-7.77,0-11.87-4.57t-4.1-13.12q0-8.31,4.76-13t13.19-4.65A25.52,25.52,0,0,1,130,91.32l-2.42,5.83a17.27,17.27,0,0,0-7.82-1.88,9.66,9.66,0,0,0-7.56,3.17,12.3,12.3,0,0,0-2.84,8.53q0,5.59,2.29,8.54a7.92,7.92,0,0,0,6.66,2.95A23.53,23.53,0,0,0,123,118v-7.16h-6.51v-6.06h13.62Zm35.11-2.63q-4.23,4.58-12.12,4.58T141,119.93q-4.23-4.58-4.23-13.15T141,93.68q4.24-4.52,12.15-4.52t12.11,4.56q4.19,4.56,4.19,13.11T165.2,119.93ZM283.28,58.61,269.59,48.9,234.17,84,217.55,64.58l-25.39,26-48.28-52L103.13,74.92,68.65,46.71,9.19,88.84V13A3.85,3.85,0,0,1,13,9.19H279.48a3.85,3.85,0,0,1,3.8,3.8Z" transform="translate(-2.19 -2.19)"/><circle class="cls-1" cx="233.23" cy="25.39" r="14.04"/></svg>