<svg xmlns="http://www.w3.org/2000/svg" viewBox="0 0 36 36"><title>01Asset 2</title><g id="Layer_2" data-name="Layer 2"><g id="Layer_1-2" data-name="Layer 1"><path style="fill: #007bb6;" d="M33.33,0H2.66A2.63,2.63,0,0,0,0,2.59V33.4A2.63,2.63,0,0,0,2.66,36H33.33A2.64,2.64,0,0,0,36,33.4V2.59A2.64,2.64,0,0,0,33.33,0Z"/><path style="fill: #fff;" d="M5.33,13.5h5.34V30.68H5.33ZM8,5a3.1,3.1,0,1,1-3.1,3.09A3.1,3.1,0,0,1,8,5"/><path style="fill: #fff;" d="M14,13.5h5.12v2.35h.07a5.61,5.61,0,0,1,5.05-2.77c5.4,0,6.4,3.56,6.4,8.18v9.42H25.34V22.32c0-2,0-4.56-2.78-4.56s-3.2,2.17-3.2,4.41v8.5H14Z"/></g></g></svg>
