<?xml version="1.0" encoding="UTF-8" standalone="no"?>
<!-- Created with Inkscape (http://www.inkscape.org/) -->

<svg
   xmlns:dc="http://purl.org/dc/elements/1.1/"
   xmlns:cc="http://creativecommons.org/ns#"
   xmlns:rdf="http://www.w3.org/1999/02/22-rdf-syntax-ns#"
   xmlns:svg="http://www.w3.org/2000/svg"
   xmlns="http://www.w3.org/2000/svg"
   xmlns:sodipodi="http://sodipodi.sourceforge.net/DTD/sodipodi-0.dtd"
   xmlns:inkscape="http://www.inkscape.org/namespaces/inkscape"
   id="svg2"
   version="1.1"
   inkscape:version="0.91 r13725"
   xml:space="preserve"
   width="112.5"
   height="112.5"
   viewBox="0 0 112.5 112.5"
   sodipodi:docname="Yelp_Burst_Screen_Yelp_burst_positive_RGB.svg"><metadata
     id="metadata8"><rdf:RDF><cc:Work
         rdf:about=""><dc:format>image/svg+xml</dc:format><dc:type
           rdf:resource="http://purl.org/dc/dcmitype/StillImage" /><dc:title></dc:title></cc:Work></rdf:RDF></metadata><defs
     id="defs6" /><sodipodi:namedview
     pagecolor="#ffffff"
     bordercolor="#666666"
     borderopacity="1"
     objecttolerance="10"
     gridtolerance="10"
     guidetolerance="10"
     inkscape:pageopacity="0"
     inkscape:pageshadow="2"
     inkscape:window-width="640"
     inkscape:window-height="480"
     id="namedview4"
     showgrid="false"
     inkscape:zoom="2.8284271"
     inkscape:cx="71.209986"
     inkscape:cy="51.278656"
     inkscape:window-x="65"
     inkscape:window-y="24"
     inkscape:window-maximized="0"
     inkscape:current-layer="g10" /><g
     id="g10"
     inkscape:groupmode="layer"
     inkscape:label="ink_ext_XXXXXX"
     transform="matrix(1.25,0,0,-1.25,0,112.5)"><g
       id="g12"
       transform="scale(0.1,0.1)"><path
         d="M 293.988,466.465 398.48,415.504 c 20.102,-9.801 16.997,-39.359 -4.703,-44.77 L 280.98,342.609 c -14.07,-3.507 -27.964,6.2 -29.625,20.606 -3.546,30.808 -0.042,61.242 9.426,89.41 4.602,13.684 20.235,20.164 33.207,13.84"
         style="fill:#d32323;fill-opacity:1;fill-rule:evenodd;stroke:none"
         id="path14"
         inkscape:connector-curvature="0" /><path
         d="m 335.824,251.355 77.774,86.387 c 14.965,16.621 42.519,5.488 41.742,-16.859 l -4.059,-116.215 c -0.504,-14.48 -13.656,-25.203 -27.945,-22.805 -30.051,5.047 -58.477,16.664 -83.289,33.711 -11.93,8.192 -13.902,25.028 -4.223,35.781"
         style="fill:#d32323;fill-opacity:1;fill-rule:evenodd;stroke:none"
         id="path16"
         inkscape:connector-curvature="0" /><path
         d="m 520.23,366.313 110.547,-35.926 c 13.758,-4.469 20.469,-20.039 14.235,-33.098 -12.965,-27.168 -31.778,-51.441 -55.278,-70.836 -11.175,-9.226 -27.921,-6.515 -35.601,5.774 l -61.621,98.613 c -11.852,18.969 6.449,42.387 27.718,35.473"
         style="fill:#d32323;fill-opacity:1;fill-rule:evenodd;stroke:none"
         id="path18"
         inkscape:connector-curvature="0" /><path
         d="m 632.648,436.836 -111.75,-32.039 c -21.496,-6.164 -38.964,17.879 -26.457,36.422 l 65.012,96.375 c 8.074,11.969 24.856,14.172 35.68,4.621 22.285,-19.66 40.535,-44.262 52.867,-72.723 5.766,-13.304 -1.414,-28.656 -15.352,-32.656"
         style="fill:#d32323;fill-opacity:1;fill-rule:evenodd;stroke:none"
         id="path20"
         inkscape:connector-curvature="0" /><path
         d="M 371.531,708 C 351.422,702.613 332.23,695.492 314.09,686.84 301.5,680.836 296.742,665.332 303.719,653.254 l 109.219,-189.18 c 12.253,-21.222 44.699,-12.527 44.699,11.977 l 0,218.441 c 0,13.949 -11.871,25 -25.778,23.903 C 411.82,716.816 391.645,713.391 371.531,708"
         style="fill:#d32323;fill-opacity:1;fill-rule:evenodd;stroke:none"
         id="path22"
         inkscape:connector-curvature="0" /></g></g></svg>